<mxfile host="app.diagrams.net" modified="2024-04-21T13:34:59.756Z" agent="Mozilla/5.0 (Windows NT 10.0; Win64; x64) AppleWebKit/537.36 (KHTML, like Gecko) Chrome/123.0.0.0 Safari/537.36" etag="xLrByOt6O0unl5NN3Jkp" version="24.2.5" type="device">
  <diagram name="Page-1" id="M_wEQLcIumDKBrQ4-JNB">
    <mxGraphModel dx="7347" dy="-44" grid="0" gridSize="10" guides="1" tooltips="1" connect="1" arrows="1" fold="1" page="0" pageScale="1" pageWidth="827" pageHeight="1169" math="0" shadow="0">
      <root>
        <mxCell id="0" />
        <mxCell id="1" parent="0" />
        <mxCell id="FIXR1feLg8hahodherzo-3" value="&lt;b&gt;Schedule appointment&lt;/b&gt;" style="shape=parallelogram;perimeter=parallelogramPerimeter;whiteSpace=wrap;html=1;fixedSize=1;fillColor=#dae8fc;strokeColor=#000000;fontFamily=Helvetica;fontSize=11;fontColor=default;labelBackgroundColor=none;" parent="1" vertex="1">
          <mxGeometry x="-4708.25" y="1134" width="152" height="29" as="geometry" />
        </mxCell>
        <mxCell id="FIXR1feLg8hahodherzo-21" value="&lt;div&gt;&lt;b&gt;Validation controller&lt;/b&gt;&lt;/div&gt;" style="shape=hexagon;perimeter=hexagonPerimeter2;whiteSpace=wrap;html=1;fixedSize=1;fillColor=#FFF2CC;fontFamily=Helvetica;fontSize=11;fontColor=default;labelBackgroundColor=none;" parent="1" vertex="1">
          <mxGeometry x="-4754.75" y="1910.5" width="146" height="38" as="geometry" />
        </mxCell>
        <mxCell id="FIXR1feLg8hahodherzo-30" value="&lt;div&gt;&lt;b&gt;Message controller&lt;/b&gt;&lt;/div&gt;" style="shape=hexagon;perimeter=hexagonPerimeter2;whiteSpace=wrap;html=1;fixedSize=1;fillColor=#FFF2CC;fontFamily=Helvetica;fontSize=11;fontColor=default;labelBackgroundColor=none;" parent="1" vertex="1">
          <mxGeometry x="-5225" y="1696" width="146" height="38" as="geometry" />
        </mxCell>
        <mxCell id="FIXR1feLg8hahodherzo-34" value="&lt;b&gt;Booking confirmation received&lt;/b&gt;" style="shape=parallelogram;perimeter=parallelogramPerimeter;whiteSpace=wrap;html=1;fixedSize=1;fillColor=#dae8fc;strokeColor=#000000;strokeWidth=3;fontFamily=Helvetica;fontSize=11;fontColor=default;labelBackgroundColor=none;size=15.809148879277927;" parent="1" vertex="1">
          <mxGeometry x="-5225" y="1339" width="192" height="39" as="geometry" />
        </mxCell>
        <mxCell id="FIXR1feLg8hahodherzo-35" value="&lt;b&gt;Schedule information provided&lt;/b&gt;" style="shape=parallelogram;perimeter=parallelogramPerimeter;whiteSpace=wrap;html=1;fixedSize=1;fillColor=#FFD966;strokeColor=#000000;strokeWidth=3;fontFamily=Helvetica;fontSize=11;fontColor=default;labelBackgroundColor=none;" parent="1" vertex="1">
          <mxGeometry x="-4843" y="1338" width="190" height="39" as="geometry" />
        </mxCell>
        <mxCell id="FIXR1feLg8hahodherzo-36" value="&lt;b&gt;Validate appointment inputs&lt;/b&gt;" style="shape=parallelogram;perimeter=parallelogramPerimeter;whiteSpace=wrap;html=1;fixedSize=1;fillColor=#dae8fc;strokeColor=#000000;strokeWidth=3;fontFamily=Helvetica;fontSize=11;fontColor=default;labelBackgroundColor=none;" parent="1" vertex="1">
          <mxGeometry x="-4653" y="1337" width="178" height="39" as="geometry" />
        </mxCell>
        <mxCell id="FIXR1feLg8hahodherzo-37" value="" style="group;fontFamily=Helvetica;fontSize=11;fontColor=default;labelBackgroundColor=default;" parent="1" vertex="1" connectable="0">
          <mxGeometry x="-4920" y="1488" width="204" height="40" as="geometry" />
        </mxCell>
        <mxCell id="FIXR1feLg8hahodherzo-38" value="&lt;b&gt;Patient&lt;/b&gt;" style="shape=hexagon;perimeter=hexagonPerimeter2;whiteSpace=wrap;html=1;fixedSize=1;fillColor=#FFF2CC;fontFamily=Helvetica;fontSize=11;fontColor=default;labelBackgroundColor=none;" parent="FIXR1feLg8hahodherzo-37" vertex="1">
          <mxGeometry width="204" height="40" as="geometry" />
        </mxCell>
        <mxCell id="FIXR1feLg8hahodherzo-39" value="" style="shape=umlActor;verticalLabelPosition=bottom;verticalAlign=top;html=1;outlineConnect=0;fillColor=none;strokeWidth=2;fontFamily=Helvetica;fontSize=11;fontColor=default;labelBackgroundColor=default;" parent="FIXR1feLg8hahodherzo-37" vertex="1">
          <mxGeometry x="14.983050847457628" y="7.75" width="10.372881355932204" height="24.5" as="geometry" />
        </mxCell>
        <mxCell id="FIXR1feLg8hahodherzo-40" value="" style="ellipse;whiteSpace=wrap;html=1;aspect=fixed;fillColor=#FAADFF;strokeWidth=2;fontFamily=Helvetica;fontSize=11;fontColor=default;labelBackgroundColor=default;" parent="1" vertex="1">
          <mxGeometry x="-4813" y="1429" width="28" height="28" as="geometry" />
        </mxCell>
        <mxCell id="FIXR1feLg8hahodherzo-41" value="" style="endArrow=block;html=1;rounded=0;endFill=1;strokeWidth=2;strokeColor=default;align=center;verticalAlign=middle;fontFamily=Helvetica;fontSize=11;fontColor=default;labelBackgroundColor=default;" parent="1" source="FIXR1feLg8hahodherzo-40" target="FIXR1feLg8hahodherzo-35" edge="1">
          <mxGeometry width="50" height="50" relative="1" as="geometry">
            <mxPoint x="-4902.064815076529" y="1432.2218581716347" as="sourcePoint" />
            <mxPoint x="-4628.75804400978" y="1524.84413202934" as="targetPoint" />
          </mxGeometry>
        </mxCell>
        <mxCell id="FIXR1feLg8hahodherzo-42" value="" style="endArrow=none;html=1;rounded=0;strokeWidth=2;strokeColor=default;align=center;verticalAlign=middle;fontFamily=Helvetica;fontSize=11;fontColor=default;labelBackgroundColor=default;" parent="1" source="FIXR1feLg8hahodherzo-38" target="FIXR1feLg8hahodherzo-40" edge="1">
          <mxGeometry width="50" height="50" relative="1" as="geometry">
            <mxPoint x="-4820" y="1496.25" as="sourcePoint" />
            <mxPoint x="-4878.06" y="1430.25" as="targetPoint" />
          </mxGeometry>
        </mxCell>
        <mxCell id="FIXR1feLg8hahodherzo-43" value="" style="ellipse;whiteSpace=wrap;html=1;aspect=fixed;fillColor=#FFD966;strokeWidth=2;" parent="1" vertex="1">
          <mxGeometry x="-4648" y="1229.5" width="31.5" height="31.5" as="geometry" />
        </mxCell>
        <mxCell id="FIXR1feLg8hahodherzo-44" value="" style="endArrow=block;html=1;rounded=0;endFill=1;strokeWidth=2;" parent="1" source="FIXR1feLg8hahodherzo-43" target="FIXR1feLg8hahodherzo-3" edge="1">
          <mxGeometry width="50" height="50" relative="1" as="geometry">
            <mxPoint x="-4851.004815076529" y="1273.9718581716347" as="sourcePoint" />
            <mxPoint x="-4855" y="1229" as="targetPoint" />
          </mxGeometry>
        </mxCell>
        <mxCell id="FIXR1feLg8hahodherzo-45" value="" style="endArrow=none;html=1;rounded=0;strokeWidth=2;" parent="1" source="FIXR1feLg8hahodherzo-35" target="FIXR1feLg8hahodherzo-43" edge="1">
          <mxGeometry width="50" height="50" relative="1" as="geometry">
            <mxPoint x="-4852" y="1336" as="sourcePoint" />
            <mxPoint x="-4827" y="1272" as="targetPoint" />
          </mxGeometry>
        </mxCell>
        <mxCell id="FIXR1feLg8hahodherzo-46" value="" style="endArrow=none;html=1;rounded=0;entryX=1;entryY=1;entryDx=0;entryDy=0;strokeWidth=2;" parent="1" source="FIXR1feLg8hahodherzo-36" target="FIXR1feLg8hahodherzo-43" edge="1">
          <mxGeometry width="50" height="50" relative="1" as="geometry">
            <mxPoint x="-4831" y="1382" as="sourcePoint" />
            <mxPoint x="-4781" y="1332" as="targetPoint" />
          </mxGeometry>
        </mxCell>
        <mxCell id="FIXR1feLg8hahodherzo-47" value="" style="endArrow=none;html=1;rounded=0;strokeWidth=2;exitX=0;exitY=0;exitDx=0;exitDy=0;" parent="1" source="FIXR1feLg8hahodherzo-43" target="FIXR1feLg8hahodherzo-34" edge="1">
          <mxGeometry width="50" height="50" relative="1" as="geometry">
            <mxPoint x="-5027.315789473684" y="1375" as="sourcePoint" />
            <mxPoint x="-4461" y="1285" as="targetPoint" />
          </mxGeometry>
        </mxCell>
        <mxCell id="FIXR1feLg8hahodherzo-52" value="" style="ellipse;whiteSpace=wrap;html=1;aspect=fixed;fillColor=#FF0000;strokeWidth=2;" parent="1" vertex="1">
          <mxGeometry x="-5143" y="1476" width="28" height="28" as="geometry" />
        </mxCell>
        <mxCell id="FIXR1feLg8hahodherzo-53" value="" style="endArrow=block;html=1;rounded=0;endFill=1;strokeWidth=2;" parent="1" source="FIXR1feLg8hahodherzo-52" edge="1" target="FIXR1feLg8hahodherzo-34">
          <mxGeometry width="50" height="50" relative="1" as="geometry">
            <mxPoint x="-4733.504815076529" y="1433.9718581716347" as="sourcePoint" />
            <mxPoint x="-5283" y="1387" as="targetPoint" />
          </mxGeometry>
        </mxCell>
        <mxCell id="FIXR1feLg8hahodherzo-54" value="" style="endArrow=none;html=1;rounded=0;strokeWidth=2;" parent="1" source="FIXR1feLg8hahodherzo-126" target="FIXR1feLg8hahodherzo-52" edge="1">
          <mxGeometry width="50" height="50" relative="1" as="geometry">
            <mxPoint x="-4733.090909090909" y="1465" as="sourcePoint" />
            <mxPoint x="-4709.5" y="1432" as="targetPoint" />
            <Array as="points" />
          </mxGeometry>
        </mxCell>
        <mxCell id="FIXR1feLg8hahodherzo-95" value="&lt;b&gt;Validate speciality&lt;/b&gt;" style="shape=parallelogram;perimeter=parallelogramPerimeter;whiteSpace=wrap;html=1;fixedSize=1;fillColor=#dae8fc;strokeColor=#000000;strokeWidth=3;fontFamily=Helvetica;fontSize=11;fontColor=default;labelBackgroundColor=none;" parent="1" vertex="1">
          <mxGeometry x="-5016" y="1654.25" width="200" height="38.5" as="geometry" />
        </mxCell>
        <mxCell id="FIXR1feLg8hahodherzo-97" value="&lt;b&gt;Validate date and hour&lt;/b&gt;" style="shape=parallelogram;perimeter=parallelogramPerimeter;whiteSpace=wrap;html=1;fixedSize=1;fillColor=#dae8fc;strokeColor=#000000;strokeWidth=3;fontFamily=Helvetica;fontSize=11;fontColor=default;labelBackgroundColor=none;" parent="1" vertex="1">
          <mxGeometry x="-4806" y="1654.25" width="200" height="38.5" as="geometry" />
        </mxCell>
        <mxCell id="FIXR1feLg8hahodherzo-98" value="&lt;b&gt;Validate clinic&lt;/b&gt;" style="shape=parallelogram;perimeter=parallelogramPerimeter;whiteSpace=wrap;html=1;fixedSize=1;fillColor=#dae8fc;strokeColor=#000000;strokeWidth=3;fontFamily=Helvetica;fontSize=11;fontColor=default;labelBackgroundColor=none;" parent="1" vertex="1">
          <mxGeometry x="-4595" y="1654.25" width="200" height="38.5" as="geometry" />
        </mxCell>
        <mxCell id="FIXR1feLg8hahodherzo-99" value="" style="ellipse;whiteSpace=wrap;html=1;aspect=fixed;fillColor=#FFD966;strokeWidth=2;" parent="1" vertex="1">
          <mxGeometry x="-4662" y="1512" width="28" height="28" as="geometry" />
        </mxCell>
        <mxCell id="FIXR1feLg8hahodherzo-100" value="" style="endArrow=none;html=1;rounded=0;strokeWidth=2;" parent="1" source="FIXR1feLg8hahodherzo-95" target="FIXR1feLg8hahodherzo-99" edge="1">
          <mxGeometry width="50" height="50" relative="1" as="geometry">
            <mxPoint x="-4497.75" y="1828" as="sourcePoint" />
            <mxPoint x="-4472.75" y="1764" as="targetPoint" />
          </mxGeometry>
        </mxCell>
        <mxCell id="FIXR1feLg8hahodherzo-102" value="" style="endArrow=none;html=1;rounded=0;strokeWidth=2;" parent="1" source="FIXR1feLg8hahodherzo-97" target="FIXR1feLg8hahodherzo-99" edge="1">
          <mxGeometry width="50" height="50" relative="1" as="geometry">
            <mxPoint x="-4356.75" y="1763" as="sourcePoint" />
            <mxPoint x="-4379.75" y="1733" as="targetPoint" />
          </mxGeometry>
        </mxCell>
        <mxCell id="FIXR1feLg8hahodherzo-103" value="" style="endArrow=none;html=1;rounded=0;strokeWidth=2;" parent="1" source="FIXR1feLg8hahodherzo-98" target="FIXR1feLg8hahodherzo-99" edge="1">
          <mxGeometry width="50" height="50" relative="1" as="geometry">
            <mxPoint x="-4401.75" y="1793" as="sourcePoint" />
            <mxPoint x="-4424.75" y="1763" as="targetPoint" />
          </mxGeometry>
        </mxCell>
        <mxCell id="FIXR1feLg8hahodherzo-107" value="&lt;b&gt;Validate doctor&lt;/b&gt;" style="shape=parallelogram;perimeter=parallelogramPerimeter;whiteSpace=wrap;html=1;fixedSize=1;fillColor=#dae8fc;strokeColor=#000000;strokeWidth=3;fontFamily=Helvetica;fontSize=11;fontColor=default;labelBackgroundColor=none;" parent="1" vertex="1">
          <mxGeometry x="-4384" y="1654.25" width="200" height="38.5" as="geometry" />
        </mxCell>
        <mxCell id="FIXR1feLg8hahodherzo-108" value="" style="endArrow=none;html=1;rounded=0;strokeWidth=2;" parent="1" source="FIXR1feLg8hahodherzo-107" target="FIXR1feLg8hahodherzo-132" edge="1">
          <mxGeometry width="50" height="50" relative="1" as="geometry">
            <mxPoint x="-4048.75" y="1770" as="sourcePoint" />
            <mxPoint x="-4207.75" y="1716" as="targetPoint" />
          </mxGeometry>
        </mxCell>
        <mxCell id="FIXR1feLg8hahodherzo-110" value="" style="endArrow=block;html=1;rounded=0;endFill=1;strokeWidth=2;" parent="1" source="FIXR1feLg8hahodherzo-99" target="FIXR1feLg8hahodherzo-36" edge="1">
          <mxGeometry width="50" height="50" relative="1" as="geometry">
            <mxPoint x="-4207.277926138604" y="1675.0099573270054" as="sourcePoint" />
            <mxPoint x="-4447.75" y="1508.5" as="targetPoint" />
          </mxGeometry>
        </mxCell>
        <mxCell id="FIXR1feLg8hahodherzo-112" value="" style="ellipse;whiteSpace=wrap;html=1;aspect=fixed;fillColor=#FF0000;strokeWidth=2;direction=south;" parent="1" vertex="1">
          <mxGeometry x="-4827" y="1827" width="28" height="28" as="geometry" />
        </mxCell>
        <mxCell id="FIXR1feLg8hahodherzo-113" value="" style="endArrow=block;html=1;rounded=0;endFill=1;strokeWidth=2;" parent="1" source="FIXR1feLg8hahodherzo-112" target="FIXR1feLg8hahodherzo-95" edge="1">
          <mxGeometry width="50" height="50" relative="1" as="geometry">
            <mxPoint x="-4588.654815076528" y="1794.2218581716347" as="sourcePoint" />
            <mxPoint x="-4602.75" y="1761.25" as="targetPoint" />
          </mxGeometry>
        </mxCell>
        <mxCell id="FIXR1feLg8hahodherzo-114" value="" style="endArrow=none;html=1;rounded=0;strokeWidth=2;" parent="1" source="FIXR1feLg8hahodherzo-21" target="FIXR1feLg8hahodherzo-112" edge="1">
          <mxGeometry width="50" height="50" relative="1" as="geometry">
            <mxPoint x="-4809.749514020059" y="2022.5" as="sourcePoint" />
            <mxPoint x="-4564.65" y="1792.25" as="targetPoint" />
          </mxGeometry>
        </mxCell>
        <mxCell id="FIXR1feLg8hahodherzo-117" value="" style="ellipse;whiteSpace=wrap;html=1;aspect=fixed;fillColor=#FF0000;strokeWidth=2;" parent="1" vertex="1">
          <mxGeometry x="-4723" y="1824.25" width="28" height="28" as="geometry" />
        </mxCell>
        <mxCell id="FIXR1feLg8hahodherzo-118" value="" style="endArrow=block;html=1;rounded=0;endFill=1;strokeWidth=2;" parent="1" source="FIXR1feLg8hahodherzo-117" target="FIXR1feLg8hahodherzo-97" edge="1">
          <mxGeometry width="50" height="50" relative="1" as="geometry">
            <mxPoint x="-4512.654815076528" y="1786.2218581716347" as="sourcePoint" />
            <mxPoint x="-4826.75" y="1685.25" as="targetPoint" />
          </mxGeometry>
        </mxCell>
        <mxCell id="FIXR1feLg8hahodherzo-119" value="" style="endArrow=none;html=1;rounded=0;strokeWidth=2;" parent="1" source="FIXR1feLg8hahodherzo-21" target="FIXR1feLg8hahodherzo-117" edge="1">
          <mxGeometry width="50" height="50" relative="1" as="geometry">
            <mxPoint x="-4649.660245817859" y="1892.5" as="sourcePoint" />
            <mxPoint x="-4488.65" y="1784.25" as="targetPoint" />
          </mxGeometry>
        </mxCell>
        <mxCell id="FIXR1feLg8hahodherzo-120" value="" style="ellipse;whiteSpace=wrap;html=1;aspect=fixed;fillColor=#FF0000;strokeWidth=2;" parent="1" vertex="1">
          <mxGeometry x="-4606" y="1831" width="28" height="28" as="geometry" />
        </mxCell>
        <mxCell id="FIXR1feLg8hahodherzo-121" value="" style="endArrow=block;html=1;rounded=0;endFill=1;strokeWidth=2;" parent="1" source="FIXR1feLg8hahodherzo-120" target="FIXR1feLg8hahodherzo-98" edge="1">
          <mxGeometry width="50" height="50" relative="1" as="geometry">
            <mxPoint x="-4502.654815076528" y="1796.2218581716347" as="sourcePoint" />
            <mxPoint x="-4696.75" y="1703.25" as="targetPoint" />
          </mxGeometry>
        </mxCell>
        <mxCell id="FIXR1feLg8hahodherzo-122" value="" style="endArrow=none;html=1;rounded=0;strokeWidth=2;" parent="1" source="FIXR1feLg8hahodherzo-21" target="FIXR1feLg8hahodherzo-120" edge="1">
          <mxGeometry width="50" height="50" relative="1" as="geometry">
            <mxPoint x="-4679.75" y="1920.25" as="sourcePoint" />
            <mxPoint x="-4478.65" y="1794.25" as="targetPoint" />
          </mxGeometry>
        </mxCell>
        <mxCell id="FIXR1feLg8hahodherzo-123" value="" style="ellipse;whiteSpace=wrap;html=1;aspect=fixed;fillColor=#FF0000;strokeWidth=2;" parent="1" vertex="1">
          <mxGeometry x="-4534.75" y="1888.25" width="28" height="28" as="geometry" />
        </mxCell>
        <mxCell id="FIXR1feLg8hahodherzo-124" value="" style="endArrow=block;html=1;rounded=0;endFill=1;strokeWidth=2;" parent="1" source="FIXR1feLg8hahodherzo-123" target="FIXR1feLg8hahodherzo-107" edge="1">
          <mxGeometry width="50" height="50" relative="1" as="geometry">
            <mxPoint x="-4492.654815076528" y="1806.2218581716347" as="sourcePoint" />
            <mxPoint x="-4499.75" y="1703.25" as="targetPoint" />
          </mxGeometry>
        </mxCell>
        <mxCell id="FIXR1feLg8hahodherzo-125" value="" style="endArrow=none;html=1;rounded=0;strokeWidth=2;" parent="1" source="FIXR1feLg8hahodherzo-21" target="FIXR1feLg8hahodherzo-123" edge="1">
          <mxGeometry width="50" height="50" relative="1" as="geometry">
            <mxPoint x="-4659.75" y="1920.25" as="sourcePoint" />
            <mxPoint x="-4626.75" y="1868.25" as="targetPoint" />
          </mxGeometry>
        </mxCell>
        <mxCell id="FIXR1feLg8hahodherzo-126" value="&lt;b&gt;Notify patient if inputs not correct&lt;/b&gt;" style="shape=parallelogram;perimeter=parallelogramPerimeter;whiteSpace=wrap;html=1;fixedSize=1;fillColor=#dae8fc;strokeColor=#000000;strokeWidth=3;fontFamily=Helvetica;fontSize=11;fontColor=default;labelBackgroundColor=none;" parent="1" vertex="1">
          <mxGeometry x="-5232" y="1572" width="218" height="38.5" as="geometry" />
        </mxCell>
        <mxCell id="FIXR1feLg8hahodherzo-132" value="" style="ellipse;whiteSpace=wrap;html=1;aspect=fixed;fillColor=#FFD966;strokeWidth=2;" parent="1" vertex="1">
          <mxGeometry x="-4509" y="1508" width="28" height="28" as="geometry" />
        </mxCell>
        <mxCell id="FIXR1feLg8hahodherzo-133" value="" style="endArrow=block;html=1;rounded=0;endFill=1;strokeWidth=2;" parent="1" source="FIXR1feLg8hahodherzo-132" target="FIXR1feLg8hahodherzo-36" edge="1">
          <mxGeometry width="50" height="50" relative="1" as="geometry">
            <mxPoint x="-4530" y="1530" as="sourcePoint" />
            <mxPoint x="-4502" y="1385" as="targetPoint" />
          </mxGeometry>
        </mxCell>
        <mxCell id="FIXR1feLg8hahodherzo-134" value="" style="endArrow=none;html=1;rounded=0;strokeWidth=2;" parent="1" source="FIXR1feLg8hahodherzo-98" target="FIXR1feLg8hahodherzo-132" edge="1">
          <mxGeometry width="50" height="50" relative="1" as="geometry">
            <mxPoint x="-4492" y="1664" as="sourcePoint" />
            <mxPoint x="-4528" y="1557" as="targetPoint" />
          </mxGeometry>
        </mxCell>
        <mxCell id="FIXR1feLg8hahodherzo-135" value="" style="endArrow=none;html=1;rounded=0;strokeWidth=2;" parent="1" source="FIXR1feLg8hahodherzo-97" target="FIXR1feLg8hahodherzo-132" edge="1">
          <mxGeometry width="50" height="50" relative="1" as="geometry">
            <mxPoint x="-4688" y="1664" as="sourcePoint" />
            <mxPoint x="-4643" y="1549" as="targetPoint" />
          </mxGeometry>
        </mxCell>
        <mxCell id="ZpXnfEx7CvquUOzYopGN-1" value="&lt;b&gt;Information saved on DB&lt;/b&gt;" style="shape=parallelogram;perimeter=parallelogramPerimeter;whiteSpace=wrap;html=1;fixedSize=1;fillColor=#dae8fc;strokeColor=#000000;strokeWidth=3;fontFamily=Helvetica;fontSize=11;fontColor=default;labelBackgroundColor=none;" vertex="1" parent="1">
          <mxGeometry x="-4481" y="1339" width="214" height="37" as="geometry" />
        </mxCell>
        <mxCell id="ZpXnfEx7CvquUOzYopGN-3" value="" style="endArrow=none;html=1;rounded=0;strokeWidth=2;" edge="1" parent="1" target="FIXR1feLg8hahodherzo-43">
          <mxGeometry width="50" height="50" relative="1" as="geometry">
            <mxPoint x="-4381" y="1337" as="sourcePoint" />
            <mxPoint x="-4444" y="1286" as="targetPoint" />
          </mxGeometry>
        </mxCell>
        <mxCell id="ZpXnfEx7CvquUOzYopGN-4" value="&lt;div&gt;&lt;b&gt;Database controller&lt;/b&gt;&lt;/div&gt;" style="shape=hexagon;perimeter=hexagonPerimeter2;whiteSpace=wrap;html=1;fixedSize=1;fillColor=#FFF2CC;fontFamily=Helvetica;fontSize=11;fontColor=default;labelBackgroundColor=none;" vertex="1" parent="1">
          <mxGeometry x="-4400" y="1494" width="166" height="40" as="geometry" />
        </mxCell>
        <mxCell id="ZpXnfEx7CvquUOzYopGN-5" value="" style="ellipse;whiteSpace=wrap;html=1;aspect=fixed;fillColor=#FF0505;strokeWidth=2;fontFamily=Helvetica;fontSize=11;fontColor=default;labelBackgroundColor=default;" vertex="1" parent="1">
          <mxGeometry x="-4342" y="1429" width="28" height="28" as="geometry" />
        </mxCell>
        <mxCell id="ZpXnfEx7CvquUOzYopGN-6" value="" style="endArrow=block;html=1;rounded=0;endFill=1;strokeWidth=2;strokeColor=default;align=center;verticalAlign=middle;fontFamily=Helvetica;fontSize=11;fontColor=default;labelBackgroundColor=default;" edge="1" source="ZpXnfEx7CvquUOzYopGN-5" parent="1" target="ZpXnfEx7CvquUOzYopGN-1">
          <mxGeometry width="50" height="50" relative="1" as="geometry">
            <mxPoint x="-4292.004815076529" y="1436.9718581716347" as="sourcePoint" />
            <mxPoint x="-4121" y="1247" as="targetPoint" />
          </mxGeometry>
        </mxCell>
        <mxCell id="ZpXnfEx7CvquUOzYopGN-7" value="" style="endArrow=none;html=1;rounded=0;strokeWidth=2;strokeColor=default;align=center;verticalAlign=middle;fontFamily=Helvetica;fontSize=11;fontColor=default;labelBackgroundColor=default;" edge="1" target="ZpXnfEx7CvquUOzYopGN-5" parent="1" source="ZpXnfEx7CvquUOzYopGN-4">
          <mxGeometry width="50" height="50" relative="1" as="geometry">
            <mxPoint x="-4291" y="1495" as="sourcePoint" />
            <mxPoint x="-4268" y="1435" as="targetPoint" />
          </mxGeometry>
        </mxCell>
        <mxCell id="ZpXnfEx7CvquUOzYopGN-8" value="Wrong data provided" style="shape=parallelogram;perimeter=parallelogramPerimeter;whiteSpace=wrap;html=1;fixedSize=1;fillColor=#FFA070;fontStyle=1;fontFamily=Helvetica;fontSize=11;fontColor=default;labelBackgroundColor=none;flipH=1;flipV=0;" vertex="1" parent="1">
          <mxGeometry x="-5027" y="1339" width="178" height="38" as="geometry" />
        </mxCell>
        <mxCell id="ZpXnfEx7CvquUOzYopGN-17" value="" style="endArrow=none;html=1;rounded=0;strokeWidth=2;" edge="1" parent="1" source="FIXR1feLg8hahodherzo-43" target="ZpXnfEx7CvquUOzYopGN-8">
          <mxGeometry width="50" height="50" relative="1" as="geometry">
            <mxPoint x="-5032" y="1385" as="sourcePoint" />
            <mxPoint x="-4921.535307517084" y="1335" as="targetPoint" />
          </mxGeometry>
        </mxCell>
        <mxCell id="ZpXnfEx7CvquUOzYopGN-19" value="" style="ellipse;whiteSpace=wrap;html=1;aspect=fixed;fillColor=#FF0000;strokeWidth=2;" vertex="1" parent="1">
          <mxGeometry x="-5037" y="1476" width="28" height="28" as="geometry" />
        </mxCell>
        <mxCell id="ZpXnfEx7CvquUOzYopGN-20" value="" style="endArrow=block;html=1;rounded=0;endFill=1;strokeWidth=2;" edge="1" source="ZpXnfEx7CvquUOzYopGN-19" parent="1" target="ZpXnfEx7CvquUOzYopGN-8">
          <mxGeometry width="50" height="50" relative="1" as="geometry">
            <mxPoint x="-4791.004815076529" y="1556.9718581716347" as="sourcePoint" />
            <mxPoint x="-4795" y="1512" as="targetPoint" />
          </mxGeometry>
        </mxCell>
        <mxCell id="ZpXnfEx7CvquUOzYopGN-21" value="" style="endArrow=none;html=1;rounded=0;strokeWidth=2;" edge="1" target="ZpXnfEx7CvquUOzYopGN-19" parent="1" source="FIXR1feLg8hahodherzo-126">
          <mxGeometry width="50" height="50" relative="1" as="geometry">
            <mxPoint x="-4792" y="1619" as="sourcePoint" />
            <mxPoint x="-4767" y="1555" as="targetPoint" />
          </mxGeometry>
        </mxCell>
        <mxCell id="ZpXnfEx7CvquUOzYopGN-23" value="" style="ellipse;whiteSpace=wrap;html=1;aspect=fixed;fillColor=#FF0000;strokeWidth=2;" vertex="1" parent="1">
          <mxGeometry x="-5166" y="1646" width="28" height="28" as="geometry" />
        </mxCell>
        <mxCell id="ZpXnfEx7CvquUOzYopGN-24" value="" style="endArrow=block;html=1;rounded=0;endFill=1;strokeWidth=2;" edge="1" source="ZpXnfEx7CvquUOzYopGN-23" parent="1" target="FIXR1feLg8hahodherzo-126">
          <mxGeometry width="50" height="50" relative="1" as="geometry">
            <mxPoint x="-4791.004815076529" y="1666.9718581716347" as="sourcePoint" />
            <mxPoint x="-4795" y="1622" as="targetPoint" />
          </mxGeometry>
        </mxCell>
        <mxCell id="ZpXnfEx7CvquUOzYopGN-25" value="" style="endArrow=none;html=1;rounded=0;strokeWidth=2;" edge="1" target="ZpXnfEx7CvquUOzYopGN-23" parent="1" source="FIXR1feLg8hahodherzo-30">
          <mxGeometry width="50" height="50" relative="1" as="geometry">
            <mxPoint x="-4792" y="1729" as="sourcePoint" />
            <mxPoint x="-4767" y="1665" as="targetPoint" />
          </mxGeometry>
        </mxCell>
      </root>
    </mxGraphModel>
  </diagram>
</mxfile>
